<svg height="512pt" viewBox="0 0 512 512" width="512pt" xmlns="http://www.w3.org/2000/svg">
    <path d="m512 256c0 68.382812-26.625 132.664062-74.976562 181.023438-48.359376 48.351562-112.640626 74.976562-181.023438 74.976562s-132.664062-26.625-181.023438-74.976562c-48.351562-48.359376-74.976562-112.640626-74.976562-181.023438s26.625-132.664062 74.976562-181.023438c48.359376-48.351562 112.640626-74.976562 181.023438-74.976562s132.664062 26.625 181.023438 74.976562c48.351562 48.359376 74.976562 112.640626 74.976562 181.023438zm0 0"
          fill="#ddeaf1"/>
    <path d="m512 256c0 68.382812-26.625 132.664062-74.976562 181.023438-48.359376 48.351562-112.640626 74.976562-181.023438 74.976562v-512c68.382812 0 132.664062 26.625 181.023438 74.976562 48.351562 48.359376 74.976562 112.640626 74.976562 181.023438zm0 0"
          fill="#bddfff"/>
    <path d="m256 66.238281v379.523438c-104.640625 0-189.761719-85.121094-189.761719-189.761719s85.121094-189.761719 189.761719-189.761719zm0 0"
          fill="#4ed8df"/>
</svg>